<svg xmlns="http://www.w3.org/2000/svg" version="1.1" xmlns:xlink="http://www.w3.org/1999/xlink" xmlns:svgjs="http://svgjs.dev/svgjs" width="2000" height="560" viewBox="0 0 2000 560"><g transform="matrix(1,0,0,1,-1.2121212121212466,-0.2832352751733538)"><svg viewBox="0 0 396 111" data-background-color="#ffffff" preserveAspectRatio="xMidYMid meet" height="560" width="2000" xmlns="http://www.w3.org/2000/svg" xmlns:xlink="http://www.w3.org/1999/xlink"><g id="tight-bounds" transform="matrix(1,0,0,1,0.2400000000000091,0.05614127775757538)"><svg viewBox="0 0 395.52 110.88771744448484" height="110.88771744448484" width="395.52"><g><svg viewBox="0 0 576.4012763555895 161.59946871753394" height="110.88771744448484" width="395.52"><g transform="matrix(1,0,0,1,0,47.995080569796215)"><svg viewBox="0 0 395.52 65.60930757794151" height="65.60930757794151" width="395.52"><g id="textblocktransform"><svg viewBox="0 0 395.52 65.60930757794151" height="65.60930757794151" width="395.52" id="textblock"><g><svg viewBox="0 0 395.52 40.8381361045927" height="40.8381361045927" width="395.52"><g transform="matrix(1,0,0,1,0,0)"><svg width="395.52" viewBox="4.15 -25.45 298.32000000000005 30.8" height="40.8381361045927" data-palette-color="#0023ff"><g class="wordmark-text-0" data-fill-palette-color="primary" id="text-0"><path d="M8 0L4.15 0 4.15-21.55Q4.15-22.5 4.48-22.75 4.8-23 5.6-23L5.6-23 8-23 8-13 23.15-13 23.15-23 27-23 27-1.55Q27-0.6 26.75-0.3 26.5 0 25.55 0L25.55 0 23.15 0 23.15-10.75 8-10.75 8 0ZM43.35 0.3L43.35 0.3Q41.05 0.3 39.22-0.05 37.4-0.4 36.07-1.45 34.75-2.5 34.05-4.55 33.35-6.6 33.35-9.95L33.35-9.95Q33.35-13.3 34.05-15.35 34.75-17.4 36.07-18.45 37.4-19.5 39.22-19.85 41.05-20.2 43.35-20.2L43.35-20.2Q45.6-20.2 47.42-19.85 49.25-19.5 50.55-18.45 51.85-17.4 52.55-15.35 53.25-13.3 53.25-9.95L53.25-9.95Q53.25-6.55 52.55-4.5 51.85-2.45 50.55-1.43 49.25-0.4 47.42-0.05 45.6 0.3 43.35 0.3ZM43.35-1.65L43.35-1.65Q45.35-1.65 46.77-2.25 48.2-2.85 48.95-4.6 49.7-6.35 49.7-9.95L49.7-9.95Q49.7-13.55 48.95-15.3 48.2-17.05 46.77-17.65 45.35-18.25 43.35-18.25L43.35-18.25Q41.35-18.25 39.92-17.65 38.5-17.05 37.72-15.3 36.95-13.55 36.95-9.95L36.95-9.95Q36.95-6.35 37.72-4.6 38.5-2.85 39.92-2.25 41.35-1.65 43.35-1.65ZM65.45 0.2L65.45 0.2Q64.6 0.2 63.32 0.15 62.05 0.1 60.72-0.08 59.4-0.25 58.35-0.6L58.35-0.6Q57.85-0.8 57.55-1 57.25-1.2 57.12-1.7 57-2.2 57-3.2L57-3.2Q58.1-2.65 59.6-2.33 61.1-2 62.6-1.9 64.1-1.8 65.1-1.8L65.1-1.8Q66.6-1.8 68.02-1.93 69.45-2.05 70.6-2.48 71.75-2.9 72.42-3.75 73.1-4.6 73.1-6L73.1-6Q73.1-8.05 72.05-8.63 71-9.2 69.2-9.2L69.2-9.2 64.15-9.2Q62.3-9.2 60.67-9.43 59.05-9.65 58.02-10.68 57-11.7 57-14.15L57-14.15Q57-16.8 58.3-18.1 59.6-19.4 61.97-19.8 64.35-20.2 67.5-20.2L67.5-20.2Q68.65-20.2 70.25-20.15 71.85-20.1 73.3-19.85L73.3-19.85Q74.3-19.7 74.97-19.48 75.65-19.25 75.97-18.85 76.3-18.45 76.3-17.7L76.3-17.7 76.3-16.7Q75.85-17.2 74.8-17.5 73.75-17.8 72.37-17.95 71-18.1 69.55-18.13 68.1-18.15 66.85-18.15L66.85-18.15Q65.25-18.15 63.75-17.95 62.25-17.75 61.32-16.98 60.4-16.2 60.4-14.35L60.4-14.35Q60.4-12.95 61-12.3 61.6-11.65 62.62-11.48 63.65-11.3 64.95-11.3L64.95-11.3 70.1-11.3Q72-11.3 73.47-10.98 74.95-10.65 75.77-9.53 76.6-8.4 76.6-6L76.6-6Q76.6-3.35 75.15-2 73.7-0.65 71.17-0.23 68.65 0.2 65.45 0.2ZM84.54 5.35L80.99 5.35 81.04-15.75Q81.04-17.15 81.02-18.18 80.99-19.2 80.94-19.5L80.94-19.5Q81.29-19.6 82.34-19.7 83.39-19.8 84.74-19.88 86.09-19.95 87.52-20.03 88.94-20.1 90.09-20.1L90.09-20.1Q94.14-20.1 96.42-19.03 98.69-17.95 99.64-15.65 100.59-13.35 100.39-9.7L100.39-9.7Q100.29-6.1 99.44-3.93 98.59-1.75 96.69-0.78 94.79 0.2 91.49 0.2L91.49 0.2Q89.49 0.2 87.87-0.2 86.24-0.6 85.24-1.58 84.24-2.55 83.94-4.4L83.94-4.4 84.54-4.95 84.54 5.35ZM90.79-1.9L90.79-1.9Q93.89-1.9 95.39-3.75 96.89-5.6 96.89-10L96.89-10Q96.99-14.45 95.49-16.25 93.99-18.05 90.09-18.05L90.09-18.05Q89.34-18.05 88.22-18 87.09-17.95 86.07-17.88 85.04-17.8 84.54-17.7L84.54-17.7 84.54-7.7Q84.54-5.35 85.32-4.1 86.09-2.85 87.49-2.38 88.89-1.9 90.79-1.9ZM109.64 0.2L109.64 0.2Q107.29 0.2 106.49-1.05 105.69-2.3 105.69-4.7L105.69-4.7 105.69-19.95 109.19-19.95 109.19-4.9Q109.19-2.85 109.64-2.15 110.09-1.45 111.24-1.45L111.24-1.45Q111.64-1.45 112.24-1.55 112.84-1.65 112.99-1.7L112.99-1.7 112.99-0.15Q112.84-0.1 112.42-0.03 111.99 0.05 111.32 0.13 110.64 0.2 109.64 0.2ZM107.49-22.85L107.49-22.85Q106.64-22.85 106.14-23.1 105.64-23.35 105.64-24.15L105.64-24.15Q105.64-24.95 106.12-25.2 106.59-25.45 107.44-25.45L107.44-25.45Q108.39-25.45 108.84-25.2 109.29-24.95 109.24-24.15L109.24-24.15Q109.24-23.35 108.79-23.1 108.34-22.85 107.49-22.85ZM121.39 0.15L121.39 0.15Q119.69 0.15 118.74-0.28 117.79-0.7 117.34-1.75 116.89-2.8 116.89-4.6L116.89-4.6 116.89-18 114.99-18 114.99-19.95 116.89-19.95 116.89-23.55Q116.89-24.3 117.01-24.68 117.14-25.05 117.44-25.15 117.74-25.25 118.29-25.25L118.29-25.25 120.44-25.25Q120.44-25.15 120.41-24.83 120.39-24.5 120.39-23.9L120.39-23.9 120.39-19.95 125.04-19.95 125.04-18 120.39-18 120.39-5Q120.39-3.05 120.79-2.25 121.19-1.45 122.59-1.45L122.59-1.45Q123.14-1.45 123.74-1.55 124.34-1.65 124.59-1.75L124.59-1.75 124.59-0.2Q124.29-0.15 123.44 0 122.59 0.15 121.39 0.15ZM137.59 0.35L137.59 0.35Q134.64 0.35 132.79 0.05 130.94-0.25 129.96-0.98 128.99-1.7 128.61-2.9 128.24-4.1 128.24-5.85L128.24-5.85Q128.24-8.4 128.84-9.75 129.44-11.1 130.94-11.6 132.44-12.1 134.94-12.1L134.94-12.1Q136.19-12.1 137.66-12.03 139.14-11.95 140.51-11.88 141.89-11.8 142.91-11.7 143.94-11.6 144.29-11.45L144.29-11.45Q144.29-13.75 143.89-15.1 143.49-16.45 142.66-17.1 141.84-17.75 140.61-17.95 139.39-18.15 137.79-18.15L137.79-18.15Q136.14-18.15 134.46-18.03 132.79-17.9 131.39-17.63 129.99-17.35 129.24-16.9L129.24-16.9 129.24-17.65Q129.24-18.7 129.86-19.13 130.49-19.55 131.29-19.7L131.29-19.7Q132.24-19.95 134.06-20.1 135.89-20.25 137.89-20.2L137.89-20.2Q140.44-20.2 142.26-19.95 144.09-19.7 145.29-18.88 146.49-18.05 147.09-16.4 147.69-14.75 147.69-11.9L147.69-11.9 147.69-1.6Q147.39-0.6 145.04-0.13 142.69 0.35 137.59 0.35ZM137.59-1.35L137.59-1.35Q139.89-1.35 141.26-1.5 142.64-1.65 143.36-1.9 144.09-2.15 144.29-2.55L144.29-2.55 144.29-10Q143.84-10.15 142.61-10.3 141.39-10.45 140.04-10.58 138.69-10.7 137.74-10.7L137.74-10.7Q135.59-10.7 134.26-10.45 132.94-10.2 132.36-9.2 131.79-8.2 131.79-6.1L131.79-6.1Q131.79-4.45 132.19-3.4 132.59-2.35 133.81-1.85 135.04-1.35 137.59-1.35ZM157.43 0.2L157.43 0.2Q155.13 0.2 154.13-0.83 153.13-1.85 153.13-4.5L153.13-4.5 153.13-23.6Q153.13-24.2 153.23-24.58 153.33-24.95 153.66-25.1 153.98-25.25 154.58-25.25L154.58-25.25 156.68-25.25Q156.68-25.2 156.63-24.6 156.58-24 156.58-23.1L156.58-23.1 156.58-5.05Q156.58-3.15 157.01-2.3 157.43-1.45 158.68-1.45L158.68-1.45Q159.03-1.45 159.63-1.55 160.23-1.65 160.43-1.7L160.43-1.7 160.43-0.15Q160.13-0.1 159.46 0.05 158.78 0.2 157.43 0.2Z" fill="#0023ff" data-fill-palette-color="primary"></path><path d="M175.88-2.15L175.88-3.5Q176.93-2.8 178.6-2.48 180.28-2.15 182.1-2.08 183.93-2 185.28-2L185.28-2Q185.78-2 186.43-2 187.08-2 187.58-2.05L187.58-2.05Q189.58-2.1 191.08-2.53 192.58-2.95 193.43-3.98 194.28-5 194.28-6.9L194.28-6.9Q194.28-9.2 193.08-9.9 191.88-10.6 189.58-10.6L189.58-10.6Q188.83-10.6 187.98-10.6 187.13-10.6 186.18-10.6 185.23-10.6 183.98-10.6L183.98-10.6Q182.58-10.6 181.13-10.73 179.68-10.85 178.48-11.38 177.28-11.9 176.58-13.03 175.88-14.15 175.88-16.25L175.88-16.25Q175.88-18.7 176.75-20.1 177.63-21.5 179.23-22.15 180.83-22.8 182.9-23 184.98-23.2 187.33-23.2L187.33-23.2Q188.73-23.2 190.5-23.15 192.28-23.1 193.85-22.9 195.43-22.7 196.33-22.2L196.33-22.2Q197.13-22.1 197.55-21.7 197.98-21.3 197.98-20.7L197.98-20.7Q197.98-20.5 197.98-20.23 197.98-19.95 197.98-19.7 197.98-19.45 197.98-19.35L197.98-19.35Q197.53-19.85 196.48-20.15 195.43-20.45 194.1-20.63 192.78-20.8 191.53-20.88 190.28-20.95 189.48-20.95L189.48-20.95 186.53-20.95Q184.73-20.95 183.18-20.65 181.63-20.35 180.7-19.43 179.78-18.5 179.78-16.5L179.78-16.5Q179.78-14.95 180.4-14.2 181.03-13.45 182.18-13.23 183.33-13 184.93-13L184.93-13Q186.88-13 188.38-13 189.88-13 190.83-13L190.83-13Q193.03-13 194.73-12.63 196.43-12.25 197.38-10.98 198.33-9.7 198.33-7L198.33-7Q198.33-4.35 197.15-2.8 195.98-1.25 193.95-0.6 191.93 0.05 189.33 0.2L189.33 0.2Q188.08 0.25 186.93 0.28 185.78 0.3 184.53 0.25L184.53 0.25Q183.38 0.25 181.88 0.15 180.38 0.05 179-0.18 177.63-0.4 176.75-0.88 175.88-1.35 175.88-2.15L175.88-2.15ZM208.68 0.15L208.68 0.15Q206.98 0.15 206.03-0.28 205.08-0.7 204.63-1.75 204.18-2.8 204.18-4.6L204.18-4.6 204.18-18 202.28-18 202.28-19.95 204.18-19.95 204.18-23.55Q204.18-24.3 204.3-24.68 204.43-25.05 204.73-25.15 205.03-25.25 205.58-25.25L205.58-25.25 207.73-25.25Q207.73-25.15 207.7-24.83 207.68-24.5 207.68-23.9L207.68-23.9 207.68-19.95 212.33-19.95 212.33-18 207.68-18 207.68-5Q207.68-3.05 208.08-2.25 208.48-1.45 209.88-1.45L209.88-1.45Q210.43-1.45 211.03-1.55 211.63-1.65 211.88-1.75L211.88-1.75 211.88-0.2Q211.58-0.15 210.73 0 209.88 0.15 208.68 0.15ZM225.57 0.3L225.57 0.3Q223.27 0.3 221.45-0.05 219.62-0.4 218.3-1.45 216.97-2.5 216.27-4.55 215.57-6.6 215.57-9.95L215.57-9.95Q215.57-13.3 216.27-15.35 216.97-17.4 218.3-18.45 219.62-19.5 221.45-19.85 223.27-20.2 225.57-20.2L225.57-20.2Q227.82-20.2 229.65-19.85 231.47-19.5 232.77-18.45 234.07-17.4 234.77-15.35 235.47-13.3 235.47-9.95L235.47-9.95Q235.47-6.55 234.77-4.5 234.07-2.45 232.77-1.43 231.47-0.4 229.65-0.05 227.82 0.3 225.57 0.3ZM225.57-1.65L225.57-1.65Q227.57-1.65 229-2.25 230.42-2.85 231.17-4.6 231.92-6.35 231.92-9.95L231.92-9.95Q231.92-13.55 231.17-15.3 230.42-17.05 229-17.65 227.57-18.25 225.57-18.25L225.57-18.25Q223.57-18.25 222.15-17.65 220.72-17.05 219.95-15.3 219.17-13.55 219.17-9.95L219.17-9.95Q219.17-6.35 219.95-4.6 220.72-2.85 222.15-2.25 223.57-1.65 225.57-1.65ZM250.72 0.3L250.72 0.3Q246.82 0.3 244.42-0.5 242.02-1.3 240.95-3.48 239.87-5.65 239.87-9.85L239.87-9.85Q239.87-14.1 240.95-16.35 242.02-18.6 244.42-19.43 246.82-20.25 250.72-20.25L250.72-20.25Q252.02-20.25 253.15-20.15 254.27-20.05 255.72-19.8L255.72-19.8Q256.52-19.7 257.02-19.43 257.52-19.15 257.72-18.68 257.92-18.2 257.92-17.3L257.92-17.3Q257.37-17.6 256.2-17.8 255.02-18 253.72-18.13 252.42-18.25 251.42-18.25L251.42-18.25Q248.42-18.25 246.67-17.48 244.92-16.7 244.2-14.93 243.47-13.15 243.47-10.05L243.47-10.05Q243.47-6.95 244.17-5.13 244.87-3.3 246.62-2.55 248.37-1.8 251.42-1.8L251.42-1.8Q252.82-1.8 254.07-1.93 255.32-2.05 256.35-2.27 257.37-2.5 257.92-2.8L257.92-2.8 257.92-1.7Q257.92-0.95 257-0.53 256.07-0.1 254.47 0.1 252.87 0.3 250.72 0.3ZM265.92 0L262.42 0 262.42-23.9Q262.42-24.7 262.67-25 262.92-25.3 263.77-25.3L263.77-25.3 265.92-25.3 265.92-9.2 275.22-19.05Q275.72-19.55 276.24-19.78 276.77-20 277.72-20.05L277.72-20.05Q278.47-20.05 279.07-20.03 279.67-20 280.17-19.95L280.17-19.95Q280.02-19.8 279.62-19.48 279.22-19.15 278.74-18.78 278.27-18.4 277.87-18.05L277.87-18.05 271.37-11.5 279.97-1.85Q280.42-1.3 280.89-0.85 281.37-0.4 281.82 0L281.82 0Q280.87 0.05 279.97 0.05 279.07 0.05 278.27 0.05L278.27 0.05Q277.42 0.05 276.97-0.2 276.52-0.45 275.97-1L275.97-1 268.92-8.95 265.92-6.15 265.92 0ZM291.32 0.2L291.32 0.2Q290.47 0.2 289.19 0.15 287.92 0.1 286.59-0.08 285.27-0.25 284.22-0.6L284.22-0.6Q283.72-0.8 283.42-1 283.12-1.2 282.99-1.7 282.87-2.2 282.87-3.2L282.87-3.2Q283.97-2.65 285.47-2.33 286.97-2 288.47-1.9 289.97-1.8 290.97-1.8L290.97-1.8Q292.47-1.8 293.89-1.93 295.32-2.05 296.47-2.48 297.62-2.9 298.29-3.75 298.97-4.6 298.97-6L298.97-6Q298.97-8.05 297.92-8.63 296.87-9.2 295.07-9.2L295.07-9.2 290.02-9.2Q288.17-9.2 286.54-9.43 284.92-9.65 283.89-10.68 282.87-11.7 282.87-14.15L282.87-14.15Q282.87-16.8 284.17-18.1 285.47-19.4 287.84-19.8 290.22-20.2 293.37-20.2L293.37-20.2Q294.52-20.2 296.12-20.15 297.72-20.1 299.17-19.85L299.17-19.85Q300.17-19.7 300.84-19.48 301.52-19.25 301.84-18.85 302.17-18.45 302.17-17.7L302.17-17.7 302.17-16.7Q301.72-17.2 300.67-17.5 299.62-17.8 298.24-17.95 296.87-18.1 295.42-18.13 293.97-18.15 292.72-18.15L292.72-18.15Q291.12-18.15 289.62-17.95 288.12-17.75 287.19-16.98 286.27-16.2 286.27-14.35L286.27-14.35Q286.27-12.95 286.87-12.3 287.47-11.65 288.49-11.48 289.52-11.3 290.82-11.3L290.82-11.3 295.97-11.3Q297.87-11.3 299.34-10.98 300.82-10.65 301.64-9.53 302.47-8.4 302.47-6L302.47-6Q302.47-3.35 301.02-2 299.57-0.65 297.04-0.23 294.52 0.2 291.32 0.2Z" fill="#0023ff" data-fill-palette-color="primary"></path></g></svg></g></svg></g><g transform="matrix(1,0,0,1,163.310208,50.479039923620526)"><svg viewBox="0 0 232.209792 15.130267654320987" height="15.130267654320987" width="232.209792"><g transform="matrix(1,0,0,1,0,0)"><svg width="232.209792" viewBox="1.5 -33.25 510.26 33.25" height="15.130267654320987" data-palette-color="#0023ff"><path d="M40.4-3.5L40.5-33.25 55-33.25 55-4.25Q55-2.75 53.9-1.88 52.8-1 51.2-0.6 49.6-0.2 47.95-0.1 46.3 0 45.25 0L45.25 0 42.7 0Q42.2 0 41.1-0.05 40-0.1 38.8-0.28 37.6-0.45 36.68-0.75 35.75-1.05 35.5-1.5L35.5-1.5Q35.3-1.05 34.33-0.75 33.35-0.45 32.1-0.28 30.85-0.1 29.75-0.05 28.65 0 28.25 0L28.25 0 11.25 0Q10.2 0 8.55-0.1 6.9-0.2 5.3-0.6 3.7-1 2.6-1.88 1.5-2.75 1.5-4.25L1.5-4.25 1.5-33.25 16-33.25 16.1-3.5 21-3.5 21-33.25 35.5-33.25 35.5-3.5 40.4-3.5ZM72-3.4L89.5-3.4 89.5 0 65 0Q64.6 0 63.47-0.08 62.35-0.15 61.07-0.33 59.8-0.5 58.9-0.85 58-1.2 58-1.7L58-1.7 58-23.3Q58-23.85 58.9-24.18 59.8-24.5 61.07-24.68 62.35-24.85 63.47-24.93 64.6-25 65-25L65-25 83-25Q83.4-25 84.52-24.93 85.65-24.85 86.92-24.68 88.2-24.5 89.1-24.18 90-23.85 90-23.3L90-23.3 90-8.8Q90-8.3 89.1-7.95 88.2-7.6 86.92-7.43 85.65-7.25 84.52-7.18 83.4-7.1 83-7.1L83-7.1 78.95-7.1Q78.45-7.1 77.4-7.15 76.35-7.2 75.2-7.38 74.05-7.55 73.15-7.85 72.25-8.15 72-8.6L72-8.6 72-3.4ZM72-21.6L72-10.5 76-10.5 76-21.6 72-21.6ZM112.99-25L130.99-25 130.99-21.6 119.99-21.6 119.99-3.4 130.99-3.4 130.99 0 112.99 0Q112.59 0 111.47-0.08 110.34-0.15 109.07-0.33 107.79-0.5 106.89-0.85 105.99-1.2 105.99-1.7L105.99-1.7 105.99-23.3Q105.99-23.85 106.89-24.18 107.79-24.5 109.07-24.68 110.34-24.85 111.47-24.93 112.59-25 112.99-25L112.99-25ZM152.44-21.6L134.94-21.6 134.94-25 159.44-25Q159.84-25 160.97-24.93 162.09-24.85 163.37-24.68 164.64-24.5 165.54-24.18 166.44-23.85 166.44-23.3L166.44-23.3 166.44-1.7Q166.44-1.2 165.54-0.85 164.64-0.5 163.37-0.33 162.09-0.15 160.97-0.08 159.84 0 159.44 0L159.44 0 140.99 0Q140.59 0 139.47-0.08 138.34-0.15 137.06-0.33 135.79-0.5 134.89-0.85 133.99-1.2 133.99-1.7L133.99-1.7 133.99-15.45Q133.99-16 134.89-16.32 135.79-16.65 137.06-16.82 138.34-17 139.47-17.07 140.59-17.15 140.99-17.15L140.99-17.15 145.44-17.15Q145.99-17.15 147.02-17.1 148.04-17.05 149.19-16.88 150.34-16.7 151.24-16.4 152.14-16.1 152.39-15.65L152.39-15.65Q152.44-15.6 152.44-15.45L152.44-15.45 152.44-21.6ZM152.44-3.4L152.44-13.75 147.99-13.75 147.99-3.4 152.44-3.4ZM183.29-21.6L183.29 0 169.29 0 169.29-25 194.29-25Q194.69-25 195.81-24.93 196.94-24.85 198.21-24.68 199.49-24.5 200.39-24.18 201.29-23.85 201.29-23.3L201.29-23.3 201.29 0 187.29 0 187.29-21.6 183.29-21.6ZM217.28-1.7L217.28-33.25 231.28-33.25 231.28-23.6Q231.58-24.05 232.51-24.33 233.43-24.6 234.56-24.75 235.68-24.9 236.68-24.95 237.68-25 238.18-25L238.18-25 242.28-25Q242.68-25 243.81-24.93 244.93-24.85 246.21-24.68 247.48-24.5 248.38-24.18 249.28-23.85 249.28-23.3L249.28-23.3 249.28-1.7Q249.28-1.2 248.38-0.85 247.48-0.5 246.21-0.33 244.93-0.15 243.81-0.08 242.68 0 242.28 0L242.28 0 224.28 0Q223.88 0 222.76-0.08 221.63-0.15 220.36-0.33 219.08-0.5 218.18-0.85 217.28-1.2 217.28-1.7L217.28-1.7ZM231.28-21.6L231.28-3.4 235.28-3.4 235.28-21.6 231.28-21.6ZM266.28-3.4L283.78-3.4 283.78 0 259.28 0Q258.88 0 257.76-0.08 256.63-0.15 255.36-0.33 254.08-0.5 253.18-0.85 252.28-1.2 252.28-1.7L252.28-1.7 252.28-23.3Q252.28-23.85 253.18-24.18 254.08-24.5 255.36-24.68 256.63-24.85 257.76-24.93 258.88-25 259.28-25L259.28-25 277.28-25Q277.68-25 278.81-24.93 279.93-24.85 281.21-24.68 282.48-24.5 283.38-24.18 284.28-23.85 284.28-23.3L284.28-23.3 284.28-8.8Q284.28-8.3 283.38-7.95 282.48-7.6 281.21-7.43 279.93-7.25 278.81-7.18 277.68-7.1 277.28-7.1L277.28-7.1 273.23-7.1Q272.73-7.1 271.68-7.15 270.63-7.2 269.48-7.38 268.33-7.55 267.43-7.85 266.53-8.15 266.28-8.6L266.28-8.6 266.28-3.4ZM266.28-21.6L266.28-10.5 270.28-10.5 270.28-21.6 266.28-21.6ZM309.93-20.6L300.28-20.6 300.28-24 304.78-24 304.78-31 317.78-31 317.78-24 323.78-24 323.78-20.6 317.78-20.6 317.78-3.4 323.78-3.4 323.78 0 310.78 0Q310.38 0 309.25-0.08 308.13-0.15 306.85-0.33 305.58-0.5 304.68-0.85 303.78-1.2 303.78-1.7L303.78-1.7 303.78-18.45Q303.78-18.9 304.45-19.2 305.13-19.5 306.13-19.68 307.13-19.85 308.15-19.95 309.18-20.05 309.93-20.1L309.93-20.1 309.93-20.6ZM340.77-21.6L340.77 0 326.77 0 326.77-23.3Q326.77-23.85 327.67-24.18 328.57-24.5 329.85-24.68 331.12-24.85 332.25-24.93 333.37-25 333.77-25L333.77-25 348.82-25 348.82-21.6 340.77-21.6ZM351.32-1.7L351.32-25 365.32-25 365.32-3.4 369.32-3.4 369.32-25 383.32-25 383.32-1.7Q383.32-1.2 382.42-0.85 381.52-0.5 380.25-0.33 378.97-0.15 377.85-0.08 376.72 0 376.32 0L376.32 0 358.32 0Q357.92 0 356.8-0.08 355.67-0.15 354.4-0.33 353.12-0.5 352.22-0.85 351.32-1.2 351.32-1.7L351.32-1.7ZM393.32-25L414.52-25 414.52-21.6 400.32-21.6 400.32-14.3 406.12-14.3Q406.52-14.3 407.54-14.3 408.57-14.3 409.89-14.23 411.22-14.15 412.44-13.98 413.67-13.8 414.47-13.48 415.27-13.15 415.27-12.6L415.27-12.6 415.27-1.7Q415.27-1.2 414.37-0.85 413.47-0.5 412.19-0.33 410.92-0.15 409.79-0.08 408.67 0 408.27 0L408.27 0 386.32 0 386.32-3.4 401.27-3.4 401.27-10.9 395.47-10.9Q395.07-10.9 394.04-10.9 393.02-10.9 391.69-10.98 390.37-11.05 389.14-11.23 387.92-11.4 387.12-11.75 386.32-12.1 386.32-12.6L386.32-12.6 386.32-23.3Q386.32-23.85 387.22-24.18 388.12-24.5 389.39-24.68 390.67-24.85 391.79-24.93 392.92-25 393.32-25L393.32-25ZM427.92-20.6L418.27-20.6 418.27-24 422.77-24 422.77-31 435.77-31 435.77-24 441.77-24 441.77-20.6 435.77-20.6 435.77-3.4 441.77-3.4 441.77 0 428.77 0Q428.37 0 427.24-0.08 426.12-0.15 424.84-0.33 423.57-0.5 422.67-0.85 421.77-1.2 421.77-1.7L421.77-1.7 421.77-18.45Q421.77-18.9 422.44-19.2 423.12-19.5 424.12-19.68 425.12-19.85 426.14-19.95 427.17-20.05 427.92-20.1L427.92-20.1 427.92-20.6ZM458.76-3.4L476.26-3.4 476.26 0 451.76 0Q451.36 0 450.24-0.08 449.11-0.15 447.84-0.33 446.56-0.5 445.66-0.85 444.76-1.2 444.76-1.7L444.76-1.7 444.76-23.3Q444.76-23.85 445.66-24.18 446.56-24.5 447.84-24.68 449.11-24.85 450.24-24.93 451.36-25 451.76-25L451.76-25 469.76-25Q470.16-25 471.29-24.93 472.41-24.85 473.69-24.68 474.96-24.5 475.86-24.18 476.76-23.85 476.76-23.3L476.76-23.3 476.76-8.8Q476.76-8.3 475.86-7.95 474.96-7.6 473.69-7.43 472.41-7.25 471.29-7.18 470.16-7.1 469.76-7.1L469.76-7.1 465.71-7.1Q465.21-7.1 464.16-7.15 463.11-7.2 461.96-7.38 460.81-7.55 459.91-7.85 459.01-8.15 458.76-8.6L458.76-8.6 458.76-3.4ZM458.76-21.6L458.76-10.5 462.76-10.5 462.76-21.6 458.76-21.6ZM497.76-23.5L497.76-33.25 511.76-33.25 511.76-1.7Q511.76-1.2 510.86-0.85 509.96-0.5 508.69-0.33 507.41-0.15 506.29-0.08 505.16 0 504.76 0L504.76 0 486.76 0Q486.36 0 485.24-0.08 484.11-0.15 482.84-0.33 481.56-0.5 480.66-0.85 479.76-1.2 479.76-1.7L479.76-1.7 479.76-23.3Q479.76-23.85 480.66-24.18 481.56-24.5 482.84-24.68 484.11-24.85 485.24-24.93 486.36-25 486.76-25L486.76-25 490.81-25Q491.36-25 492.39-24.95 493.41-24.9 494.56-24.73 495.71-24.55 496.61-24.25 497.51-23.95 497.76-23.5L497.76-23.5ZM493.76-21.6L493.76-3.4 497.76-3.4 497.76-21.6 493.76-21.6Z" opacity="1" transform="matrix(1,0,0,1,0,0)" fill="#0023ff" class="slogan-text-1" data-fill-palette-color="secondary" id="text-1"></path></svg></g></svg></g></svg></g></svg></g><g transform="matrix(1,0,0,1,414.8018076380556,0)"><svg viewBox="0 0 161.59946871753394 161.59946871753394" height="161.59946871753394" width="161.59946871753394"><g><svg></svg></g><g id="icon-0"><svg viewBox="0 0 161.59946871753394 161.59946871753394" height="161.59946871753394" width="161.59946871753394"><g><path d="M0 80.8c0-44.624 36.175-80.8 80.8-80.8 44.624 0 80.8 36.175 80.799 80.8 0 44.624-36.175 80.8-80.799 80.799-44.624 0-80.8-36.175-80.8-80.799zM80.8 157.917c42.59 0 77.117-34.526 77.117-77.117 0-42.59-34.526-77.117-77.117-77.117-42.59 0-77.117 34.526-77.117 77.117 0 42.59 34.526 77.117 77.117 77.117z" data-fill-palette-color="accent" fill="#0023ff" stroke="transparent"></path></g><g transform="matrix(1,0,0,1,32.342660716401,37.005180135594806)"><svg viewBox="0 0 96.91414728473194 87.58910844634433" height="87.58910844634433" width="96.91414728473194"><g><svg xmlns="http://www.w3.org/2000/svg" xmlns:xlink="http://www.w3.org/1999/xlink" version="1.1" x="0" y="0" viewBox="0 5.25 49.90376984126984 45.10204991709205" enable-background="new 0 0 50.4 50.4" xml:space="preserve" id="dxe-0" width="96.91414728473194" height="87.58910844634433" class="icon-dxe-0" data-fill-palette-color="accent"><g fill="#0023ff" data-fill-palette-color="accent"><g fill="#0023ff" data-fill-palette-color="accent"><path d="M35.095 39.273A4.01 4.01 0 0 1 31.09 35.267 4.01 4.01 0 1 1 39.108 35.267 4.01 4.01 0 0 1 35.095 39.273" fill="#0023ff" data-fill-palette-color="accent"></path></g><path d="M34.216 50.055L34.346 49.97H34.353L39.295 44.875A0.532 0.532 0 0 1 40.059 45.614L35.47 50.347H46.23S45.052 45.028 41.461 41.139C40.505 39.983 37.94 38.879 36.173 40.545 34.722 41.909 33.874 44.098 33.38 46.026L28.873 41.466A1.86 1.86 0 0 0 26.24 41.45 1.865 1.865 0 0 0 26.224 44.084L31.876 49.8C32.237 50.164 32.716 50.352 33.2 50.352A1.84 1.84 0 0 0 34.216 50.055" fill="#0023ff" data-fill-palette-color="accent"></path></g><g fill="#0023ff" data-fill-palette-color="accent"><g fill="#0023ff" data-fill-palette-color="accent"><path d="M11.134 39.273A4.01 4.01 0 0 0 15.139 35.267 4.013 4.013 0 0 0 11.134 31.256 4.009 4.009 0 1 0 11.134 39.273" fill="#0023ff" data-fill-palette-color="accent"></path></g><path d="M12.013 50.055L11.884 49.97H11.878L6.935 44.875A0.532 0.532 0 0 0 6.171 45.614L10.761 50.347H0S1.178 45.028 4.77 41.139C5.725 39.983 8.29 38.879 10.058 40.545 11.506 41.909 12.356 44.098 12.85 46.026L17.358 41.466A1.86 1.86 0 0 1 19.99 41.45C20.72 42.173 20.726 43.351 20.006 44.084L14.354 49.8A1.86 1.86 0 0 1 13.03 50.352 1.85 1.85 0 0 1 12.013 50.055" fill="#0023ff" data-fill-palette-color="accent"></path></g><g fill="#0023ff" data-fill-palette-color="accent"><polygon points="21.336,23.748 21.336,33.995 24.954,33.995 24.954,27.348 46.686,27.348 46.686,50.4 50.303,50.4 50.303,23.748     " fill="#0023ff" data-fill-palette-color="accent"></polygon><rect x="21.336" y="37.085" width="3.618" height="13.315" fill="#0023ff" data-fill-palette-color="accent"></rect></g><path d="M44.7 9.742H33.95L28.755 5.25 27.222 6.514 29.629 9.742H25.424A9.64 9.64 0 0 0 31.199 18.569H27.895V21.562H42.228V18.569H38.92C42.322 17.081 44.7 13.691 44.7 9.742M31.184 15.865V13.5H33.871L33.869 10.812H36.234L36.232 13.5H38.94V15.864H36.232L36.234 18.569H33.869L33.871 15.864z" fill="#0023ff" data-fill-palette-color="accent"></path></svg></g></svg></g></svg></g></svg></g></svg></g><defs></defs></svg><rect width="395.52" height="110.88771744448484" fill="none" stroke="none" visibility="hidden"></rect></g></svg></g></svg>